<?xml version="1.0" encoding="UTF-8"?>
<svg xmlns="http://www.w3.org/2000/svg" xmlns:xlink="http://www.w3.org/1999/xlink" width="16px" height="12px" viewBox="0 0 15 15" version="1.1">
<g id="surface1">
<path style=" stroke:none;fill-rule:nonzero;fill:rgb(0%,0%,0%);fill-opacity:1;" d="M 13.082031 5.152344 C 12.847656 4.292969 12.460938 3.488281 11.894531 2.730469 C 11.328125 1.972656 10.644531 1.347656 9.820312 0.882812 C 9.019531 0.425781 8.15625 0.125 7.242188 0.00390625 C 7.050781 -0.0195312 6.902344 0.0585938 6.800781 0.226562 C 6.703125 0.398438 6.714844 0.570312 6.835938 0.722656 C 7.59375 1.699219 8.003906 2.800781 8.085938 4.035156 C 8.164062 5.261719 7.886719 6.40625 7.273438 7.476562 C 6.730469 8.421875 6 9.167969 5.050781 9.71875 C 4.101562 10.261719 3.082031 10.53125 1.988281 10.53125 C 1.640625 10.53125 1.375 10.515625 1.199219 10.480469 C 1 10.464844 0.855469 10.539062 0.761719 10.703125 C 0.664062 10.882812 0.667969 11.046875 0.792969 11.214844 C 1.390625 11.988281 2.078125 12.589844 2.835938 13.023438 C 3.972656 13.675781 5.136719 14.003906 6.324219 14.003906 C 7.558594 14.003906 8.714844 13.683594 9.796875 13.046875 C 10.886719 12.40625 11.753906 11.550781 12.378906 10.464844 C 12.851562 9.648438 13.144531 8.769531 13.257812 7.835938 C 13.367188 6.902344 13.3125 6.003906 13.082031 5.152344 Z M 11.613281 9.972656 C 11.066406 10.921875 10.316406 11.671875 9.367188 12.21875 C 8.417969 12.769531 7.40625 13.039062 6.324219 13.039062 C 5.242188 13.039062 4.21875 12.761719 3.273438 12.210938 C 2.832031 11.957031 2.476562 11.683594 2.179688 11.40625 C 3.390625 11.375 4.515625 11.046875 5.558594 10.425781 C 6.601562 9.804688 7.429688 8.96875 8.039062 7.917969 C 8.648438 6.863281 8.964844 5.726562 8.976562 4.507812 C 8.988281 3.285156 8.714844 2.148438 8.140625 1.09375 C 8.59375 1.246094 9.007812 1.441406 9.375 1.652344 C 11.109375 2.644531 12.175781 4.4375 12.386719 6.265625 C 12.53125 7.511719 12.277344 8.828125 11.613281 9.972656 Z M 11.613281 9.972656 "/>
</g>
</svg>
