<?xml version="1.0" encoding="UTF-8"?>
<svg xmlns="http://www.w3.org/2000/svg" xmlns:xlink="http://www.w3.org/1999/xlink" width="13px" height="13px" viewBox="0 0 15 13" version="1.1">
<g id="surface1">
<path style=" stroke:none;fill-rule:nonzero;fill:rgb(80%,80%,80%);fill-opacity:1;" d="M 1.785156 6.695312 L 0.445312 6.695312 C 0.199219 6.695312 0 6.894531 0 7.140625 C 0 7.386719 0.199219 7.585938 0.445312 7.585938 L 1.785156 7.585938 C 2.03125 7.585938 2.230469 7.386719 2.230469 7.140625 C 2.230469 6.894531 2.03125 6.695312 1.785156 6.695312 Z M 7.140625 2.230469 C 7.386719 2.230469 7.585938 2.03125 7.585938 1.785156 L 7.585938 0.445312 C 7.585938 0.199219 7.386719 0 7.140625 0 C 6.894531 0 6.695312 0.199219 6.695312 0.445312 L 6.695312 1.785156 C 6.695312 2.03125 6.894531 2.230469 7.140625 2.230469 Z M 11.433594 3.472656 L 12.371094 2.535156 C 12.542969 2.363281 12.542969 2.082031 12.371094 1.910156 C 12.199219 1.738281 11.917969 1.738281 11.746094 1.910156 L 10.808594 2.847656 C 10.636719 3.019531 10.636719 3.300781 10.808594 3.472656 C 10.980469 3.644531 11.261719 3.644531 11.433594 3.472656 Z M 3.308594 10.347656 L 2.367188 11.285156 C 2.195312 11.457031 2.195312 11.738281 2.367188 11.910156 C 2.542969 12.085938 2.820312 12.085938 2.996094 11.910156 L 3.933594 10.972656 C 4.105469 10.800781 4.105469 10.519531 3.933594 10.347656 C 3.757812 10.175781 3.480469 10.175781 3.308594 10.347656 Z M 3.039062 3.667969 C 3.210938 3.84375 3.496094 3.84375 3.667969 3.667969 C 3.84375 3.496094 3.84375 3.210938 3.667969 3.039062 L 2.722656 2.089844 C 2.546875 1.917969 2.265625 1.917969 2.089844 2.089844 C 1.917969 2.265625 1.917969 2.546875 2.089844 2.722656 Z M 7.140625 12.046875 C 6.894531 12.046875 6.695312 12.25 6.695312 12.496094 L 6.695312 13.832031 C 6.695312 14.082031 6.894531 14.28125 7.140625 14.28125 C 7.386719 14.28125 7.585938 14.082031 7.585938 13.832031 L 7.585938 12.496094 C 7.585938 12.25 7.386719 12.046875 7.140625 12.046875 Z M 11.242188 10.609375 C 11.066406 10.4375 10.785156 10.4375 10.609375 10.609375 C 10.4375 10.785156 10.4375 11.066406 10.609375 11.242188 L 11.558594 12.1875 C 11.730469 12.363281 12.015625 12.363281 12.1875 12.1875 C 12.363281 12.015625 12.363281 11.730469 12.1875 11.558594 Z M 13.832031 6.695312 L 12.496094 6.695312 C 12.25 6.695312 12.046875 6.894531 12.046875 7.140625 C 12.046875 7.386719 12.25 7.585938 12.496094 7.585938 L 13.832031 7.585938 C 14.082031 7.585938 14.28125 7.386719 14.28125 7.140625 C 14.28125 6.894531 14.082031 6.695312 13.832031 6.695312 Z M 7.140625 3.121094 C 4.921875 3.121094 3.121094 4.921875 3.121094 7.140625 C 3.121094 9.359375 4.921875 11.160156 7.140625 11.160156 C 9.359375 11.160156 11.160156 9.359375 11.160156 7.140625 C 11.160156 4.921875 9.359375 3.121094 7.140625 3.121094 Z M 7.140625 10.261719 C 5.414062 10.261719 4.015625 8.863281 4.015625 7.140625 C 4.015625 5.414062 5.414062 4.015625 7.140625 4.015625 C 8.863281 4.015625 10.261719 5.414062 10.261719 7.140625 C 10.261719 8.863281 8.863281 10.261719 7.140625 10.261719 Z M 7.140625 10.261719 "/>
</g>
</svg>
